<svg xmlns="http://www.w3.org/2000/svg" width="400" height="300" viewBox="0 0 400 300">
	<rect width="400" height="300" rx="12" fill="#0d1117"/>
	<rect x="16" y="16" width="368" height="32" rx="6" fill="#161b22"/>
	<g transform="translate(16, 64)">
		<rect width="368" height="220" rx="6" fill="#1c2128"/>
		<rect x="16" y="16" width="100" height="188" rx="4" fill="#161b22"/>
		<rect x="132" y="16" width="220" height="88" rx="4" fill="#161b22"/>
		<rect x="148" y="32" width="188" height="56" rx="4" fill="transparent" stroke="#22c55e" stroke-opacity="0.4" stroke-width="1"/>
		<rect x="152" y="36" width="40" height="48" rx="2" fill="#22c55e" opacity="0.2"/>
		<rect x="196" y="36" width="40" height="48" rx="2" fill="#78b5ff" opacity="0.2"/>
		<rect x="240" y="36" width="40" height="48" rx="2" fill="#22c55e" opacity="0.15"/>
		<rect x="284" y="36" width="40" height="48" rx="2" fill="#78b5ff" opacity="0.15"/>
		<rect x="132" y="120" width="220" height="84" rx="4" fill="#161b22"/>
		<rect x="148" y="136" width="188" height="12" rx="2" fill="#78b5ff" opacity="0.2"/>
		<rect x="148" y="156" width="150" height="12" rx="2" fill="#78b5ff" opacity="0.15"/>
		<rect x="148" y="176" width="120" height="12" rx="2" fill="#22c55e" opacity="0.2"/>
	</g>
</svg>
